<svg width="42" height="42" viewBox="0 0 42 42" fill="none" xmlns="http://www.w3.org/2000/svg">
<path d="M24.525 21L40.275 5.27498C40.7457 4.80422 41.0102 4.16573 41.0102 3.49998C41.0102 2.83422 40.7457 2.19573 40.275 1.72498C39.8042 1.25422 39.1657 0.989746 38.5 0.989746C37.8342 0.989746 37.1957 1.25422 36.725 1.72498L21 17.475L5.27497 1.72498C4.80421 1.25422 4.16572 0.989747 3.49997 0.989747C2.83422 0.989747 2.19573 1.25422 1.72497 1.72498C1.25421 2.19573 0.989741 2.83422 0.989741 3.49998C0.989741 4.16573 1.25421 4.80422 1.72497 5.27498L17.475 21L1.72497 36.725C1.49065 36.9574 1.30466 37.2339 1.17774 37.5385C1.05082 37.8432 0.985474 38.1699 0.985474 38.5C0.985474 38.83 1.05082 39.1568 1.17774 39.4614C1.30466 39.7661 1.49065 40.0426 1.72497 40.275C1.95738 40.5093 2.23388 40.6953 2.53853 40.8222C2.84318 40.9491 3.16994 41.0145 3.49997 41.0145C3.83 41.0145 4.15676 40.9491 4.46141 40.8222C4.76606 40.6953 5.04256 40.5093 5.27497 40.275L21 24.525L36.725 40.275C36.9574 40.5093 37.2339 40.6953 37.5385 40.8222C37.8432 40.9491 38.1699 41.0145 38.5 41.0145C38.83 41.0145 39.1568 40.9491 39.4614 40.8222C39.7661 40.6953 40.0426 40.5093 40.275 40.275C40.5093 40.0426 40.6953 39.7661 40.8222 39.4614C40.9491 39.1568 41.0145 38.83 41.0145 38.5C41.0145 38.1699 40.9491 37.8432 40.8222 37.5385C40.6953 37.2339 40.5093 36.9574 40.275 36.725L24.525 21Z" fill="black"/>
</svg>
