<svg width="60" height="60" viewBox="0 0 60 60" fill="none" xmlns="http://www.w3.org/2000/svg">
<path fill-rule="evenodd" clip-rule="evenodd" d="M29.5923 54.9967L30 55C29.8571 55 29.7144 54.9988 29.572 54.9964C29.4418 54.9942 29.3118 54.991 29.1821 54.9869C29.1742 54.9866 29.1662 54.9864 29.1582 54.9861C29.0279 54.9818 28.8979 54.9765 28.7681 54.9702C28.7645 54.97 28.7609 54.9698 28.7573 54.9697C28.6249 54.9632 28.4929 54.9557 28.3612 54.9471C28.356 54.9468 28.3508 54.9465 28.3456 54.9461C28.2164 54.9377 28.0876 54.9283 27.9591 54.9179C27.9504 54.9172 27.9418 54.9165 27.9332 54.9158C27.806 54.9054 27.6791 54.894 27.5524 54.8817C27.546 54.8811 27.5395 54.8805 27.5331 54.8798C27.4061 54.8674 27.2794 54.854 27.153 54.8397C27.1439 54.8386 27.1348 54.8376 27.1258 54.8366C27.0037 54.8226 26.8819 54.8077 26.7603 54.792C26.7449 54.79 26.7295 54.788 26.7141 54.786C26.5997 54.771 26.4855 54.7552 26.3715 54.7386C26.3506 54.7355 26.3297 54.7325 26.3089 54.7294C26.1953 54.7126 26.082 54.695 25.9689 54.6767C25.9522 54.674 25.9355 54.6713 25.9189 54.6685C25.8017 54.6493 25.6848 54.6292 25.5681 54.6084C25.5559 54.6062 25.5437 54.604 25.5314 54.6018C25.415 54.5808 25.2989 54.559 25.1831 54.5364C25.1664 54.5331 25.1497 54.5298 25.1331 54.5266C25.0199 54.5042 24.9068 54.4811 24.794 54.4572C24.7769 54.4536 24.7599 54.4499 24.7429 54.4463C24.63 54.4221 24.5173 54.3972 24.4049 54.3715C24.3896 54.368 24.3744 54.3645 24.3591 54.361C24.2442 54.3345 24.1296 54.3072 24.0153 54.2791C24.0018 54.2758 23.9882 54.2724 23.9746 54.2691C23.8608 54.2409 23.7473 54.212 23.6342 54.1823C23.6201 54.1786 23.6061 54.1749 23.592 54.1712C23.4785 54.1412 23.3652 54.1103 23.2523 54.0788C23.2397 54.0752 23.2271 54.0717 23.2145 54.0682C23.0974 54.0352 22.9807 54.0015 22.8644 53.9669C22.8565 53.9645 22.8485 53.9621 22.8405 53.9598C22.7228 53.9246 22.6054 53.8887 22.4884 53.8519C22.4803 53.8493 22.4722 53.8467 22.464 53.8442C22.2185 53.7666 21.9746 53.6854 21.7324 53.6006C21.7306 53.5999 21.7287 53.5993 21.7268 53.5986L21.7228 53.5972C21.358 53.4693 20.9971 53.3331 20.6402 53.1889C20.6293 53.1845 20.6184 53.1801 20.6074 53.1756C20.4957 53.1303 20.3842 53.0841 20.2732 53.0372C20.2685 53.0352 20.2639 53.0333 20.2592 53.0313C20.1463 52.9835 20.0337 52.9348 19.9216 52.8854C19.912 52.8811 19.9024 52.8769 19.8928 52.8726C19.7833 52.8242 19.6743 52.775 19.5657 52.7251C19.5579 52.7215 19.5501 52.7179 19.5422 52.7142C19.4349 52.6648 19.328 52.6145 19.2215 52.5636C19.2082 52.5572 19.1948 52.5508 19.1814 52.5443C19.0786 52.4949 18.9763 52.4448 18.8743 52.3941C18.8604 52.3872 18.8466 52.3803 18.8328 52.3734C18.7305 52.3222 18.6285 52.2703 18.5268 52.2177C18.5153 52.2117 18.5038 52.2058 18.4922 52.1998C18.3916 52.1475 18.2913 52.0945 18.1914 52.0409C18.1749 52.0321 18.1585 52.0232 18.142 52.0143C18.0422 51.9604 17.9427 51.9058 17.8436 51.8506C17.8343 51.8454 17.8249 51.8402 17.8156 51.835C17.7127 51.7774 17.6102 51.7191 17.5081 51.6601C17.4984 51.6545 17.4887 51.6489 17.479 51.6433C17.3808 51.5863 17.283 51.5287 17.1856 51.4705C17.1691 51.4606 17.1526 51.4508 17.1362 51.4408C17.0417 51.3841 16.9477 51.3267 16.8541 51.2687C16.841 51.2606 16.828 51.2526 16.8151 51.2445C16.7177 51.1839 16.6208 51.1228 16.5244 51.0609C16.5125 51.0533 16.5006 51.0457 16.4887 51.038C16.3926 50.9762 16.297 50.9137 16.2019 50.8506C16.1912 50.8436 16.1806 50.8365 16.1699 50.8294C16.074 50.7656 15.9785 50.7011 15.8835 50.636C15.8728 50.6286 15.862 50.6212 15.8513 50.6139C15.7532 50.5464 15.6556 50.4782 15.5585 50.4094C15.5525 50.4052 15.5466 50.401 15.5406 50.3967C14.8133 49.8802 14.1148 49.3257 13.448 48.7363C13.4402 48.7293 13.4324 48.7224 13.4245 48.7155C13.2421 48.5537 13.062 48.3893 12.8843 48.2224C12.8746 48.2133 12.865 48.2043 12.8554 48.1952C12.7811 48.1252 12.7072 48.0547 12.6338 47.9837C7.9269 43.4374 5 37.0605 5 30C5 16.1929 16.1929 5 30 5C36.6304 5 42.9893 7.63392 47.6777 12.3223C52.3661 17.0107 55 23.3696 55 30C55 37.0607 52.0729 43.4378 47.366 47.984C47.3657 47.9843 47.3658 47.9849 47.3659 47.9854C46.1843 49.1258 44.8911 50.1509 43.5042 51.0426C43.4978 51.0467 43.4913 51.0508 43.4849 51.055C43.3869 51.1179 43.2885 51.1801 43.1896 51.2416C43.1771 51.2494 43.1646 51.2571 43.1521 51.2648C43.0559 51.3245 42.9592 51.3835 42.8621 51.4419C42.8499 51.4492 42.8376 51.4566 42.8252 51.464C42.7271 51.5227 42.6287 51.5808 42.5297 51.6382C42.5184 51.6448 42.507 51.6514 42.4956 51.658C42.2811 51.782 42.0646 51.9029 41.8461 52.0206C41.8312 52.0287 41.8162 52.0368 41.8013 52.0448C41.7028 52.0976 41.604 52.1497 41.5049 52.2012C41.4909 52.2085 41.477 52.2157 41.463 52.223C41.3667 52.2727 41.2699 52.3219 41.1728 52.3705C41.1511 52.3814 41.1292 52.3923 41.1073 52.4032C41.0145 52.4492 40.9215 52.4947 40.8281 52.5396C40.8073 52.5498 40.7864 52.5598 40.7655 52.5698C40.67 52.6153 40.5744 52.6603 40.4784 52.7046C40.4579 52.7142 40.4374 52.7236 40.4169 52.733C40.3184 52.7782 40.2194 52.8228 40.1202 52.8668C40.1035 52.8743 40.0868 52.8817 40.07 52.889C39.9666 52.9345 39.8629 52.9794 39.7588 53.0236C39.744 53.0299 39.7293 53.0362 39.7146 53.0424C39.6063 53.088 39.4977 53.1329 39.3887 53.1771C39.3708 53.1845 39.3529 53.1917 39.3349 53.1989C39.234 53.2395 39.1327 53.2795 39.0311 53.3189C39.0104 53.327 38.9897 53.335 38.9689 53.343C38.8671 53.382 38.7651 53.4205 38.6627 53.4583C38.6464 53.4644 38.6301 53.4705 38.6137 53.4764C38.5117 53.5138 38.4093 53.5506 38.3066 53.5868C38.2842 53.5948 38.2616 53.6027 38.2391 53.6106C38.1365 53.6463 38.0337 53.6814 37.9306 53.7158C37.9126 53.7219 37.8946 53.7279 37.8766 53.7339C37.7699 53.7692 37.6629 53.8039 37.5555 53.8379C37.5405 53.8427 37.5256 53.8475 37.5106 53.8522C37.3964 53.888 37.2818 53.9232 37.1669 53.9575C37.1595 53.9598 37.1522 53.9619 37.1448 53.9641C37.0275 53.999 36.9098 54.0331 36.7918 54.0663C36.7759 54.0709 36.7601 54.0753 36.7442 54.0797C36.632 54.1111 36.5193 54.1417 36.4064 54.1715C36.3917 54.1755 36.377 54.1793 36.3623 54.1832C36.2507 54.2124 36.1389 54.2409 36.0268 54.2687C36.0127 54.2722 35.9986 54.2757 35.9845 54.2792C35.8709 54.307 35.757 54.3342 35.6429 54.3605C35.6268 54.3642 35.6106 54.368 35.5945 54.3716C35.4855 54.3965 35.3763 54.4207 35.2668 54.4442C35.2457 54.4487 35.2246 54.4532 35.2035 54.4577C35.0944 54.4808 34.9852 54.5031 34.8757 54.5248C34.8581 54.5283 34.8405 54.5317 34.8229 54.5352C34.5735 54.5839 34.3228 54.629 34.0707 54.6702C34.0608 54.6719 34.0509 54.6735 34.041 54.6751C33.9175 54.6951 33.7937 54.7143 33.6697 54.7326C33.6583 54.7342 33.647 54.7359 33.6357 54.7375C33.5145 54.7552 33.3931 54.772 33.2713 54.7879C33.2608 54.7893 33.2503 54.7906 33.2397 54.792C33.1186 54.8077 32.9972 54.8225 32.8755 54.8364C32.8634 54.8378 32.8512 54.8392 32.8391 54.8406C32.7175 54.8543 32.5956 54.8672 32.4735 54.8792C32.4619 54.8803 32.4502 54.8815 32.4386 54.8826C32.3164 54.8944 32.1939 54.9054 32.0711 54.9154C32.0587 54.9165 32.0462 54.9175 32.0337 54.9185C31.9073 54.9286 31.7807 54.9379 31.6538 54.9462C31.6485 54.9465 31.6432 54.9469 31.6379 54.9472C31.5052 54.9558 31.3722 54.9633 31.239 54.9698C31.2373 54.9699 31.2355 54.97 31.2338 54.9701C31.1027 54.9765 30.9713 54.9818 30.8397 54.9862L30.8347 54.9863C30.5576 54.9954 30.2793 55 30 55C29.8639 55 29.728 54.9989 29.5923 54.9967ZM32.5 40H27.5C23.5176 40 20.0347 42.3434 18.4335 45.7698L18.2525 46.185L18.4092 46.3008C21.2587 48.3306 24.6631 49.632 28.3506 49.933C28.3558 49.9334 28.3608 49.9338 28.3658 49.9342L28.3506 49.933C28.4607 49.942 28.571 49.95 28.6816 49.9572L28.3658 49.9342C28.4733 49.9429 28.581 49.9507 28.6888 49.9577L28.6816 49.9572C28.7884 49.9642 28.8955 49.9703 29.0028 49.9756L28.6888 49.9577C28.8003 49.9649 28.9119 49.9712 29.0237 49.9766L29.0028 49.9756C29.083 49.9795 29.1634 49.983 29.2439 49.986L30 50L30.3134 49.9976C30.3232 49.9974 30.333 49.9973 30.3428 49.9971C30.4485 49.9953 30.5539 49.9927 30.6591 49.9893L30.3428 49.9971C30.4494 49.9953 30.5558 49.9927 30.662 49.9892L30.6591 49.9893C30.7663 49.9859 30.8732 49.9816 30.98 49.9764L30.662 49.9892C30.7723 49.9857 30.8825 49.9812 30.9924 49.9758L30.98 49.9764C31.0912 49.971 31.2022 49.9648 31.3129 49.9576L30.9924 49.9758C31.1008 49.9705 31.209 49.9643 31.317 49.9573L31.3129 49.9576C31.4212 49.9506 31.5292 49.9427 31.637 49.934L31.317 49.9573C31.4272 49.9502 31.5372 49.9421 31.6471 49.9331L31.637 49.934C31.7417 49.9255 31.8462 49.9162 31.9505 49.9061L31.6471 49.9331C31.7564 49.9242 31.8655 49.9144 31.9745 49.9038L31.9505 49.9061C35.5148 49.5611 38.8055 48.2805 41.5737 46.313L41.745 46.185L41.5666 45.7704C40.0356 42.4928 36.7821 40.2059 33.0166 40.0132L32.5 40ZM30 10C18.9543 10 10 18.9543 10 30C10 34.7699 11.6698 39.1499 14.4568 42.5871C17.0382 38.0553 21.9123 35 27.5 35H32.5C38.0879 35 42.9621 38.0555 45.5431 42.5868C48.3301 39.15 50 34.77 50 30C50 18.9543 41.0457 10 30 10ZM30 12.5C35.5228 12.5 40 16.9772 40 22.5C40 27.8555 35.7901 32.2277 30.4991 32.4878L30 32.5C24.4772 32.5 20 28.0228 20 22.5C20 17.1445 24.2099 12.7723 29.5009 12.5122L30 12.5ZM30 17.5C27.2386 17.5 25 19.7386 25 22.5C25 25.2614 27.2386 27.5 30 27.5C32.7614 27.5 35 25.2614 35 22.5C35 19.7386 32.7614 17.5 30 17.5Z" fill="black"/>
</svg>
